<svg width="25" height="32" viewBox="0 0 25 32" fill="none" xmlns="http://www.w3.org/2000/svg">
<path d="M23.8755 27.044C24.1909 27.6173 24.3198 28.119 24.2625 28.549C24.2338 28.979 24.1908 29.3373 24.1335 29.624C24.0475 29.9393 23.8325 30.2117 23.4885 30.441C23.1732 30.6417 22.8148 30.7993 22.4135 30.914C21.8975 31.0573 21.4675 31.086 21.1235 31C20.6935 30.914 20.3352 30.7707 20.0485 30.57C19.8765 30.4267 19.7189 30.2977 19.5755 30.183C19.4322 30.0397 19.2889 29.9107 19.1455 29.796C19.0022 29.6527 18.8732 29.5237 18.7585 29.409C18.6438 29.2943 18.5579 29.1797 18.5005 29.065C18.4432 28.9503 18.3858 28.8787 18.3285 28.85C18.2999 28.7927 18.2712 28.7497 18.2425 28.721L12.5235 20.465L6.84752 28.721C6.81885 28.7497 6.77585 28.7927 6.71852 28.85C6.68985 28.8787 6.63252 28.9503 6.54652 29.065C6.48918 29.1797 6.40318 29.2943 6.28852 29.409C6.20252 29.5237 6.10218 29.6527 5.98752 29.796C5.84418 29.9107 5.68652 30.0397 5.51452 30.183C5.34252 30.2977 5.18485 30.4267 5.04152 30.57C4.86952 30.6847 4.68318 30.7707 4.48252 30.828C4.31052 30.8853 4.13852 30.9427 3.96652 31C3.59385 31.086 3.19252 31.0573 2.76252 30.914C1.87385 30.7133 1.25752 30.2833 0.913516 29.624C0.741516 29.28 0.669849 28.9217 0.698516 28.549C0.727182 28.1477 0.813182 27.7463 0.956516 27.345C1.12852 26.9437 1.31485 26.5567 1.51552 26.184C1.74485 25.8113 1.97418 25.453 2.20352 25.109C2.31818 24.9657 2.41852 24.8367 2.50452 24.722C2.61918 24.6073 2.73385 24.4783 2.84852 24.335C3.22118 23.8477 3.57952 23.3603 3.92352 22.873C4.26752 22.357 4.64018 21.8123 5.04152 21.239L9.04052 15.434L3.14952 6.92L2.63352 6.189C2.51885 6.017 2.40418 5.85933 2.28952 5.716C2.17485 5.57267 2.06018 5.40066 1.94552 5.2C1.83085 5.05667 1.71618 4.899 1.60152 4.727C1.48685 4.555 1.38652 4.35433 1.30052 4.125C1.21452 3.953 1.12852 3.79533 1.04252 3.652C0.985182 3.48 0.927849 3.27933 0.870516 3.05C0.784516 2.706 0.755849 2.39066 0.784516 2.104C0.870516 1.73133 1.05685 1.416 1.34352 1.158C1.45818 1.01466 1.58718 0.899998 1.73052 0.813999C1.90252 0.727998 2.06018 0.641999 2.20352 0.556C2.49018 0.441333 2.74818 0.355332 2.97752 0.297998C3.20685 0.240665 3.45052 0.211999 3.70852 0.211999C4.22452 0.240665 4.71185 0.426999 5.17052 0.771C5.74385 1.14366 6.25985 1.60233 6.71852 2.147C6.91918 2.46233 7.11985 2.76333 7.32052 3.05C7.52118 3.308 7.73618 3.58033 7.96552 3.867L8.00852 4.039C8.72518 4.985 9.37018 5.90233 9.94352 6.791C10.5455 7.651 11.2049 8.56833 11.9215 9.543C12.0362 9.68633 12.1365 9.82967 12.2225 9.973C12.3085 10.1163 12.4088 10.2597 12.5235 10.403C12.6382 10.2597 12.7385 10.1163 12.8245 9.973C12.9105 9.82967 13.0108 9.68633 13.1255 9.543C13.7849 8.56833 14.4155 7.651 15.0175 6.791C15.6482 5.90233 16.3075 4.985 16.9955 4.039L17.0815 3.867C17.3109 3.58033 17.5258 3.308 17.7265 3.05C17.9559 2.76333 18.1709 2.46233 18.3715 2.147C18.8302 1.60233 19.3462 1.14366 19.9195 0.771C20.3495 0.426999 20.8369 0.240665 21.3815 0.211999C21.8402 0.211999 22.3275 0.326666 22.8435 0.556C23.1875 0.756666 23.4455 0.957332 23.6175 1.158C23.9615 1.416 24.1765 1.73133 24.2625 2.104C24.2912 2.39066 24.2625 2.706 24.1765 3.05C24.1192 3.27933 24.0475 3.48 23.9615 3.652C23.9042 3.79533 23.8039 3.953 23.6605 4.125C23.4885 4.555 23.3022 4.91333 23.1015 5.2C22.9869 5.40066 22.8722 5.57267 22.7575 5.716C22.6429 5.85933 22.5425 6.017 22.4565 6.189L21.9405 6.92L16.0065 15.434L20.0055 21.239L22.3275 24.507C22.5855 24.937 22.8435 25.3527 23.1015 25.754C23.3595 26.1553 23.6175 26.5853 23.8755 27.044Z" fill="#FF2A84"/>
</svg>
