<svg width="36" height="30" viewBox="0 0 36 30" fill="none" xmlns="http://www.w3.org/2000/svg">
<path d="M35.524 4.96783L34.5718 7.8127C34.4528 8.1683 33.9781 8.40488 33.5633 8.26602L28.7234 6.38238C31.0311 10.1207 31.6973 14.8254 30.2094 19.2705C27.4916 27.3902 18.6317 31.8064 10.5318 29.0293C2.41208 26.3115 -1.90537 17.5505 0.812453 9.43081C2.06225 5.69693 4.65514 2.67623 7.83947 0.842124C8.235 0.644975 8.70914 0.80368 8.90629 1.19921L10.2469 3.88882C10.4046 4.20524 10.325 4.63996 9.9295 4.83711C7.71428 6.13879 5.95263 8.25137 5.07975 10.8592C3.13561 16.6674 6.21115 22.8377 12.0194 24.7818C17.7684 26.7061 23.998 23.6504 25.9421 17.8422C27.1324 14.2861 26.3663 10.4706 24.2156 7.64167L22.4884 13.7862C22.3495 14.2011 21.8947 14.3784 21.5391 14.2594L18.6943 13.3071C18.3387 13.1881 18.0822 12.7727 18.2211 12.3579L22.1887 0.504253C22.3078 0.148645 22.7824 -0.0879344 23.138 0.0310943L35.0509 4.01856C35.4065 4.13759 35.6431 4.61222 35.524 4.96783Z" fill="#FF2A84"/>
</svg>
