<?xml version="1.0" standalone="no"?>
<!DOCTYPE svg PUBLIC "-//W3C//DTD SVG 20010904//EN"
 "http://www.w3.org/TR/2001/REC-SVG-20010904/DTD/svg10.dtd">
<svg version="1.0" xmlns="http://www.w3.org/2000/svg"
 width="260.000000pt" height="260.000000pt" viewBox="0 0 260.000000 260.000000"
 preserveAspectRatio="xMidYMid meet">
<metadata>
Created by potrace 1.11, written by Peter Selinger 2001-2013
</metadata>
<g transform="translate(0.000000,260.000000) scale(0.100000,-0.100000)"
fill="#000000" stroke="none">
<path d="M1105 2586 c-547 -91 -966 -492 -1082 -1036 -28 -131 -25 -382 5
-520 114 -512 504 -896 1022 -1007 119 -25 382 -25 500 1 270 59 474 169 665
360 194 195 305 398 362 666 13 63 18 129 18 250 0 121 -5 187 -18 250 -111
521 -500 913 -1017 1025 -102 22 -353 28 -455 11z m-88 -704 c94 -49 162 -151
171 -258 23 -286 -314 -451 -528 -258 -61 56 -92 123 -98 214 -7 135 52 240
171 300 59 30 67 31 152 28 67 -3 101 -10 132 -26z"/>
</g>
</svg>
